# xmcd
#
# Track frame offsets:
#	150
#	15711
#	32697
#	48990
#	63695
#	80761
#	96838
#	114592
#	130180
#	147647
#	165893
#	182473
#	196926
#
# Disc length: 2879 seconds
#
# Revision: 0
# Processed by: cddbd v1.5.1PL0 Copyright (c) Steve Scherf et al.
# Submitted via: audiograbber 1.81.01
#
DISCID=ae0b3d0d
DTITLE=Ирина Билык - Любовь_Яд
DYEAR=2004
DGENRE=Pop
TTITLE0=О любви
TTITLE1=Помнить
TTITLE2=Не такая, как все
TTITLE3=Шутка
TTITLE4=Снег
TTITLE5=Любовь_Яд
TTITLE6=Если ты хочешь
TTITLE7=Киев-Ленинград
TTITLE8=Лучики
TTITLE9=15 шагов
TTITLE10=Любовь-это...
TTITLE11=Ты-на север, я-на юг (дуэт с Сердючкой)
TTITLE12=Вверх по реке (саундтрек)
EXTD=
EXTT0=
EXTT1=
EXTT2=
EXTT3=
EXTT4=
EXTT5=
EXTT6=
EXTT7=
EXTT8=
EXTT9=
EXTT10=
EXTT11=
EXTT12=
PLAYORDER=
